<?xml version="1.0" encoding="utf-8"?>
<!-- Generator: Adobe Illustrator 26.2.1, SVG Export Plug-In . SVG Version: 6.00 Build 0)  -->
<svg version="1.1" id="Layer_1" xmlns="http://www.w3.org/2000/svg" xmlns:xlink="http://www.w3.org/1999/xlink" x="0px" y="0px"
	 viewBox="0 0 512 512" style="enable-background:new 0 0 512 512;" xml:space="preserve">
<style type="text/css">
	.st0{fill:#DF88B8;}
</style>
<path class="st0" d="M512,80c0,18.01-14.3,34.6-38.4,48c-29.1,16.1-72.4,27.5-122.3,30.9c-3.6-1.7-7.4-3.4-11.2-5
	C300.6,137.4,248.2,128,192,128c-8.3,0-16.4,0.2-24.5,0.6l-1.1-0.6C142.3,114.6,128,98.01,128,80c0-44.18,85.1-80,192-80
	C426,0,512,35.82,512,80L512,80z M160.7,161.1c10.2-0.7,20.6-1.1,31.3-1.1c62.2,0,117.4,12.3,152.5,31.4
	c24.8,13.5,39.5,30.3,39.5,48.6c0,3.1-0.7,7.9-2.1,11.7c-4.6,13.2-17.8,25.3-35,35.6l0,0c-0.1,0-0.3,0.1-0.4,0.2l0,0
	c-0.3,0.2-0.6,0.3-0.9,0.5c-35,19.4-90.8,32-153.6,32c-59.6,0-112.94-11.3-148.16-29.1c-1.87-1-3.69-2.8-5.45-2.9
	C14.28,274.6,0,258,0,240c0-34.8,53.43-64.5,128-75.4C138.5,163,149.4,161.8,160.7,161.1L160.7,161.1z M391.9,186.6
	c28.3-4.4,54.2-11.4,76.2-20.5c16.3-6.8,31.4-15.2,43.9-25.5V176c0,19.3-16.5,37.1-43.8,50.9c-14.7,7.4-32.4,13.6-52.4,18.4
	c0.1-1.7,0.2-3.5,0.2-5.3C416,218.1,405.4,200.1,391.9,186.6L391.9,186.6z M384,336c0,18-14.3,34.6-38.4,48
	c-1.8,0.1-3.6,1.9-5.4,2.9C304.9,404.7,251.6,416,192,416c-62.8,0-118.58-12.6-153.61-32C14.28,370.6,0,354,0,336v-35.4
	c12.45,10.3,27.62,18.7,43.93,25.5C83.44,342.6,135.8,352,192,352s108.6-9.4,148.1-25.9c7.8-3.2,15.3-6.9,22.4-10.9
	c6.1-3.4,11.8-7.2,17.2-11.2c1.5-1.1,2.9-2.3,4.3-3.4V336z M416,278.1c18.1-5,36.5-9.5,52.1-16c16.3-6.8,31.4-15.2,43.9-25.5V272
	c0,10.5-5,21-14.9,30.9c-16.3,16.3-45,29.7-81.3,38.4c0.1-1.7,0.2-3.5,0.2-5.3V278.1z M192,448c56.2,0,108.6-9.4,148.1-25.9
	c16.3-6.8,31.4-15.2,43.9-25.5V432c0,44.2-86,80-192,80C85.96,512,0,476.2,0,432v-35.4c12.45,10.3,27.62,18.7,43.93,25.5
	C83.44,438.6,135.8,448,192,448z"/>
</svg>
