<?xml version="1.0" encoding="utf-8"?>
<!-- Generator: Adobe Illustrator 25.4.1, SVG Export Plug-In . SVG Version: 6.00 Build 0)  -->
<svg version="1.1" id="Layer_1" xmlns="http://www.w3.org/2000/svg" xmlns:xlink="http://www.w3.org/1999/xlink" x="0px" y="0px"
	 viewBox="0 0 512 512" style="enable-background:new 0 0 512 512;" xml:space="preserve">
<style type="text/css">
	.st0{fill:#FFFFFF;}
</style>
<path class="st0" d="M96,480h64c17.7,0,32-14.3,32-32s-14.3-32-32-32H96c-17.7,0-32-14.3-32-32V128c0-17.7,14.3-32,32-32h64
	c17.7,0,32-14.3,32-32s-14.3-32-32-32H96C43,32,0,75,0,128v256C0,437,43,480,96,480z M504.8,238.5l-144.1-136
	c-7-6.6-17.2-8.4-26-4.6c-8.8,3.8-14.5,12.5-14.5,22l-0.1,72l-128,0c-17.7,0-32,14.3-32,32v64c0,17.7,14.3,32,32,32l128,0l0.1,71.1
	c0,9.6,5.7,18.2,14.5,22c8.8,3.8,19,2,26-4.6l144.1-136C514.4,264.4,514.4,247.6,504.8,238.5z"/>
</svg>
